<svg width="139" height="65" viewBox="0 0 139 65" fill="none" xmlns="http://www.w3.org/2000/svg">
<path d="M139 -5H0L59.9312 60.6531C65.1688 66.449 73.8312 66.449 79.0688 60.6531L139 -5Z" fill="#81B3D3"/>
<path d="M36.804 -4.50255L68.9951 33.2042L101.086 -4.30357L36.804 -4.50255Z" fill="#23A9E1"/>
<path d="M61.2734 9.62496H78.6225C77.3188 8.82904 74.21 5.04842 72.6055 6.44128C72.5052 6.54077 67.6916 0.770346 64.5828 3.55607C61.8751 6.04332 60.5714 3.2576 57.5629 5.14791C53.9527 7.53567 59.5686 8.82904 61.2734 9.62496ZM88.0492 6.14281L78.2214 6.2423C82.1324 1.76525 83.8373 2.2627 88.0492 6.14281Z" fill="white"/>
<path d="M97.8768 -1.41836V-3.80612H99.9827L97.8768 -1.41836ZM48.5371 7.93371C48.6374 8.0332 50.9439 5.54595 54.6544 3.0587C58.0641 0.770425 63.2788 -1.81632 69.0953 -1.81632C74.9118 -1.81632 80.2268 0.869915 83.6365 3.15819C87.347 5.54595 89.6535 7.93371 89.7538 8.0332L87.2467 11.0179C82.7339 11.6148 79.5248 14.898 75.1123 14.2016C72.9061 13.8036 72.8058 12.6097 72.2041 11.3164C71.7027 10.3215 70.9004 10.5205 69.8976 10.1225C68.995 9.72453 68.3933 9.0281 66.4879 9.42606C64.8834 9.82402 64.6828 12.3113 62.5769 12.2118C61.4737 12.1123 61.3734 10.6199 59.7689 8.63014C55.6573 3.75513 51.8465 4.45156 49.2391 8.92861L68.8947 32.1098L48.5371 7.93371ZM40.1133 -3.80612V-1.91581L38.5087 -3.80612H40.1133ZM94.1663 -3.80612H97.3753V-0.821416L94.1663 2.95921V-3.80612ZM90.0546 7.53575V-3.80612H93.5646V3.55615L90.0546 7.53575C90.1549 7.53575 90.0546 7.53575 90.0546 7.53575ZM89.5532 -2.81122V7.0383C88.4501 5.94391 87.2467 4.94901 85.943 4.0536L89.5532 -2.81122ZM85.4416 -3.10969V3.65564C84.9401 3.35717 84.539 2.95921 83.9373 2.66074C83.2353 2.26278 82.5333 1.76533 81.7311 1.36737L85.4416 -3.10969ZM81.0291 -3.30867V0.969405C80.0262 0.471955 78.9231 -0.0254955 77.9203 -0.522946L81.0291 -3.30867ZM81.6308 -3.80612H85.3413L81.6308 0.770425V-3.80612ZM85.943 -3.80612H89.5532L85.943 3.25768V-3.80612ZM77.118 -3.80612H81.0291L77.5191 -0.721926C77.4189 -0.721926 77.3186 -0.821416 77.2183 -0.821416L77.118 -3.80612ZM76.6166 -3.40816V-1.0204C75.6138 -1.41836 74.6109 -1.71683 73.5078 -1.91581L76.6166 -3.40816ZM72.4047 -3.40816V-2.11479C71.7027 -2.21428 71.0007 -2.31377 70.1984 -2.41326L72.4047 -3.40816ZM65.5854 -3.40816L67.7916 -2.41326C66.9893 -2.41326 66.2874 -2.31377 65.5854 -2.11479V-3.40816ZM61.4737 -3.40816L64.5825 -1.91581C63.4794 -1.71683 62.4766 -1.41836 61.4737 -1.0204V-3.40816ZM65.084 -2.21428L61.7746 -3.80612H65.084V-2.21428ZM68.5939 -2.61224L65.7859 -3.90561H68.5939V-2.61224ZM69.2959 -3.80612H72.2041L69.2959 -2.51275V-3.80612ZM73.0064 -3.80612H76.2155L73.0064 -2.21428V-3.80612ZM60.5712 -0.721926L57.0612 -3.80612H60.9723V-0.821416L60.5712 -0.721926ZM56.961 -3.30867L60.0698 -0.622436C58.9666 -0.224476 57.9638 0.272975 56.961 0.869915V-3.30867ZM52.6488 -3.10969L56.259 1.36737C54.9553 2.0638 53.7519 2.85972 52.6488 3.75513V-3.10969ZM48.4368 -2.81122L52.0471 4.15309C50.7434 5.14799 49.54 6.14289 48.4368 7.33677V-2.81122ZM52.1473 3.15819L48.5371 -3.90561H52.1473V3.15819ZM56.4595 0.670935L52.749 -3.90561H56.4595V0.670935ZM43.8238 2.46176L40.6147 -1.31887V-3.80612H43.8238V2.46176ZM44.4255 -3.80612H47.9354V7.33677L44.4255 3.15819V-3.80612ZM69.2959 -5H36.1019V9.52555L68.995 49.2221L69.1956 48.9236L102.289 9.92351V-5H69.2959Z" fill="#491213"/>
<path d="M66.3877 40.7655L68.9951 36.5869L71.6025 40.7655L68.9951 44.9441L66.3877 40.7655Z" fill="#23A9E1"/>
<path d="M74.4106 25.4439C71.001 23.4541 71.8033 21.9618 74.6112 20.5689C76.1155 19.8725 79.4248 17.1862 80.7285 18.0817L74.4106 25.4439ZM72.1041 27.9312C70.0984 27.8317 67.7919 27.5332 65.7862 28.0307C66.9896 28.3291 69.9981 29.2245 67.1902 29.921C68.193 31.3138 69.7976 31.2144 70.8004 30.0205C70.3993 29.8215 70.0984 29.523 69.7976 29.324C70.9007 29.0256 71.9035 28.4286 72.1041 27.9312ZM73.3075 26.3393C72.405 25.5434 71.4021 25.5434 70.5998 26.3393C69.3964 24.25 65.1845 24.9465 63.1788 24.648C64.282 27.2347 72.8061 27.7322 73.3075 26.3393ZM66.4882 24.1506C64.8837 23.6531 59.6689 23.7526 63.0786 22.3597C64.1817 21.9618 69.7976 22.4592 66.4882 24.1506ZM68.4939 21.1659C67.9925 20.0715 68.895 18.7781 70.1987 19.773C71.4021 20.5689 69.597 21.7628 68.4939 21.1659ZM65.5857 21.2653C63.2791 21.9618 60.2706 20.4694 63.9811 19.773C66.2876 19.2755 68.6945 20.2704 65.5857 21.2653C65.6859 21.2653 65.4854 21.2653 65.5857 21.2653ZM62.9783 15.097C62.4769 16.6888 61.474 16.9873 61.5743 15.097C61.6746 12.8087 63.1788 13.4056 64.7834 12.5102C66.0871 11.8138 66.7891 9.12755 69.0956 10.7194C70.0984 11.4158 71.3018 10.8189 71.6027 11.9133C71.6027 11.8138 68.6945 18.5791 70.299 18.5791C67.0899 18.5791 68.4939 14.7985 69.6973 12.2117C68.4939 12.8087 66.5885 16.4898 68.193 17.1862C67.3908 18.2806 64.7834 19.773 63.4797 18.6786C62.3766 17.6837 62.9783 16.3903 62.9783 15.097ZM58.9669 17.8827C53.351 17.8827 57.1618 9.32653 59.0672 9.82398C61.2735 10.5204 60.9726 17.9822 58.9669 17.8827ZM52.7493 9.72449C50.1419 9.625 51.2451 7.13775 53.0502 6.6403C54.755 6.14285 58.2649 7.73469 59.4683 8.82908C57.6632 9.42602 55.3567 9.32653 53.351 9.42602C53.1505 7.43622 52.649 8.13265 52.7493 9.72449Z" fill="#DC6243"/>
<path d="M72.0039 20.6685C69.0957 17.6838 76.3161 17.9823 77.5195 16.8879C78.3218 17.1864 84.5394 11.5155 86.0437 11.9134C84.9406 13.2068 82.634 17.1864 81.0295 17.1864C79.7258 17.1864 78.4221 16.9874 77.4193 17.8828C75.915 19.2757 73.5082 19.9721 72.0039 20.6685Z" fill="#F49774"/>
<path d="M72.906 17.0868C71.3015 17.9822 69.7972 14.5996 72.6052 14.898C74.4103 15.097 76.3157 14.6991 78.0205 14.9975C76.7168 16.4899 74.9117 17.2858 72.906 17.0868Z" fill="#F4B1A4"/>
<path d="M51.2452 15.7935C51.546 16.1915 51.8469 16.5894 51.7466 17.1864C51.7466 17.5843 51.1449 18.1813 51.546 18.3803L53.0503 16.5894C52.6492 16.4899 49.5404 12.8088 49.5404 12.4108L47.4344 13.5052C47.5347 13.9032 48.2367 13.5052 48.6378 13.5052C49.1392 13.5052 49.5404 13.9032 49.9415 14.2017C48.8384 15.0971 46.1307 17.4848 45.8299 17.4848C45.7296 17.4848 45.1279 17.0869 45.1279 17.4848C45.1279 17.6838 45.7296 18.1813 45.8299 18.2808L47.2338 19.9721C47.635 19.7731 47.1336 19.4746 47.3341 19.1762C47.4344 18.9772 50.5432 16.4899 51.2452 15.7935ZM47.8355 11.3165C48.1364 11.217 48.2367 11.6149 48.4372 11.3165L46.8327 9.42615C46.6321 9.12768 46.3313 8.82921 46.3313 9.42615C46.4316 9.82411 42.3199 13.1073 42.1194 13.2068C41.8185 13.3063 41.6179 12.9083 41.4174 13.3063C41.9188 13.9032 42.3199 14.4007 42.8214 14.9976C43.0219 15.1966 43.1222 15.3956 43.3228 15.5945C43.5233 15.7935 43.4231 15.1966 43.4231 15.1966C43.3228 14.8981 43.7239 14.5996 44.0248 14.4007C45.0276 13.4057 47.5347 11.3165 47.8355 11.3165ZM42.1194 10.7195C41.0162 11.018 39.7126 10.62 39.4117 9.42615C39.0106 8.23226 39.8128 7.03838 40.7154 6.34195C41.6179 5.64552 43.0219 5.74501 43.5233 6.8394C43.7239 7.33685 43.6236 7.93379 43.4231 8.43125C43.3228 8.72972 43.0219 9.02819 43.4231 9.22717C44.0248 8.53074 44.5262 7.8343 45.1279 7.13787C44.4259 6.73991 44.125 6.04348 43.6236 5.44654C43.0219 4.75011 42.3199 4.05368 41.3171 3.95419C39.4117 3.65572 37.7069 5.64552 37.5063 7.33685C37.406 8.23226 37.7069 9.12768 38.3086 9.9236C38.81 10.5205 39.512 11.018 39.9131 11.7144C40.1137 11.8139 41.7182 11.018 42.0191 10.9185C42.2196 10.9185 42.1194 10.819 42.1194 10.7195C41.6179 10.9185 42.1194 10.7195 42.1194 10.7195ZM67.6917 34.1992C66.9898 33.7017 65.0844 31.2145 64.6832 30.717L64.4827 30.4186L64.2821 30.518C64.1818 30.6175 64.3824 30.916 64.2821 31.115C63.7807 31.9109 60.5716 34.2987 60.371 34.4976C59.9699 34.6966 59.5687 34.3982 59.3682 34.6966C59.8696 35.2936 61.1733 36.9849 61.3739 36.9849C61.6747 36.9849 61.4741 36.4874 61.4741 36.388C61.5744 36.189 63.179 34.7961 63.7807 34.2987C63.9812 34.0997 64.1818 34.5971 64.3824 34.7961C64.5829 35.0946 64.6832 35.4925 64.5829 35.791C64.4827 35.99 64.0815 36.388 64.3824 36.5869C64.7835 36.0895 65.8866 34.7961 66.0872 34.5971C66.2878 34.3982 65.6861 34.5971 65.7863 34.4976C65.5858 34.5971 65.2849 34.6966 65.0844 34.4976C64.9841 34.4976 64.3824 33.8012 64.4827 33.7017C64.7835 33.5027 65.0844 33.1048 65.4855 33.0053C66.0872 32.9058 66.4883 34.0002 66.5886 34.3982C66.6889 34.7961 66.6889 35.1941 66.4883 35.4925C66.3881 35.791 66.1875 35.99 66.4883 36.0895L67.8923 34.1992C67.8923 34.2987 67.792 34.2987 67.6917 34.1992C67.5915 34.1992 67.792 34.2987 67.6917 34.1992ZM58.4656 25.3446C57.7636 25.3446 57.0617 25.643 56.4599 26.1405C55.056 27.3344 54.8554 29.4237 55.9585 30.916C57.2622 32.6073 59.3682 32.8063 61.073 31.6124C62.477 30.4186 62.6775 28.3293 61.5744 26.8369C60.7722 25.842 59.5687 25.3446 58.4656 25.3446ZM59.669 26.7374C60.5716 26.6379 61.1733 27.5333 60.7722 28.5282C60.371 29.5231 59.3682 30.518 58.3653 30.916C57.1619 31.4135 56.3597 30.4186 56.8611 29.2247C57.2622 28.2298 58.2651 27.2349 59.2679 26.8369C59.3682 26.8369 59.4685 26.7374 59.669 26.7374ZM56.8611 22.1609C57.1619 22.1609 57.4628 22.5588 57.6634 22.1609L56.2594 20.4695C55.8582 20.6685 56.2594 20.8675 56.1591 21.0665C55.9585 21.365 54.4543 21.5639 54.0531 21.6634C54.1534 21.2655 54.6548 19.9721 54.8554 19.8726C55.2565 19.5741 55.4571 20.1711 55.6577 19.7731L53.8526 17.6838C53.652 17.4848 53.4514 16.9874 53.2509 17.2859C53.2509 17.2859 53.2509 18.2808 53.1506 18.3803C53.0503 18.5792 52.5489 20.768 51.9472 21.2655C51.6463 21.5639 50.4429 22.5588 50.1421 22.6583C49.8412 22.7578 49.6407 22.2604 49.3398 22.6583L50.9443 24.5486C51.0446 24.6481 51.3455 25.1456 51.4458 25.1456C51.7466 25.2451 51.4458 24.5486 51.546 24.4491C51.6463 24.1507 53.1506 22.6583 53.8526 22.5588C54.7551 22.3599 55.8582 22.0614 56.8611 22.1609C57.0617 22.1609 56.6605 22.1609 56.8611 22.1609ZM81.1298 28.8267C81.2301 29.2247 81.3303 29.7221 81.2301 30.1201C81.1298 30.717 80.6284 32.0104 79.8261 31.6124C79.0238 31.2145 78.4221 30.518 77.7201 29.9211C78.2215 29.3242 78.723 28.8267 79.6255 29.1252C79.8261 29.2247 80.0266 29.1252 79.8261 28.9262C79.5252 28.7272 77.8204 27.6328 77.7201 27.7323C77.5196 27.9313 78.021 28.3293 77.8204 28.7272C77.7201 29.0257 77.4193 29.2247 77.2187 29.5231C76.7173 29.1252 76.0153 28.7272 76.5167 28.0308C76.9179 27.6328 77.319 27.2349 77.9207 27.1354C78.3218 27.0359 79.1241 27.4339 79.2244 27.0359C78.5224 26.7374 77.8204 26.3395 77.1184 26.041C77.2187 26.5384 74.9122 28.9262 74.4108 29.5231C74.3105 29.6226 74.0096 29.9211 74.0096 30.0206C74.0096 30.3191 74.4108 30.1201 74.4108 30.1201C74.7116 30.0206 78.8232 33.4033 78.9235 33.7017C79.0238 33.9007 78.8232 34.0997 78.9235 34.1992C78.9235 34.1992 79.0238 34.2987 79.1241 34.2987C79.4249 34.0002 82.0323 30.4186 82.634 30.3191C82.1326 29.5231 81.6312 28.7272 81.1298 27.9313C80.7286 28.1303 81.0295 28.6277 81.1298 28.8267ZM77.1184 33.2043C75.8147 32.3089 73.5082 34.0002 73.1071 34.1992C72.4051 34.4976 71.9037 33.8012 72.3048 33.2043C72.6056 32.7068 73.2073 32.4084 73.8091 32.4084C74.0096 32.4084 74.7116 32.5078 74.7116 32.4084C74.8119 32.3089 74.8119 32.3089 74.7116 32.2094C74.1099 31.8114 73.6085 31.4135 73.0068 31.115C72.9065 31.8114 72.1042 32.2094 71.7031 32.7068C71.2017 33.3038 70.7003 34.0002 70.7003 34.6966C70.7003 35.3931 71.1014 36.0895 71.8034 36.388C72.5054 36.7859 73.3076 36.4874 74.0096 36.0895C74.4108 35.791 74.8119 35.4925 75.213 35.2936C75.8147 34.9951 76.7173 35.2936 76.5167 36.0895C76.3162 36.7859 75.6142 37.3829 74.9122 37.5818C74.511 37.6813 74.1099 37.6813 73.7088 37.4824C73.4079 37.3829 73.1071 36.9849 72.9065 37.3829L75.213 38.9747C75.3133 38.4773 75.5139 38.2783 75.915 37.9798C76.4164 37.5818 76.8176 37.0844 77.2187 36.5869C78.021 35.6915 78.3218 34.0997 77.1184 33.2043ZM94.7684 5.24756C94.7684 5.34705 94.7684 5.34705 94.7684 5.24756L93.8658 6.24246L93.0635 7.23736C92.863 7.43634 92.7627 7.53583 93.0635 7.73481C93.565 7.43634 96.5735 12.5103 96.3729 13.2068C95.8715 13.4057 91.8601 9.9236 91.7599 9.72462C91.7599 9.62513 91.9604 9.02819 91.6596 9.12768C91.5593 9.12768 91.1582 9.72462 91.0579 9.82411L90.4562 10.5205C90.6567 10.819 90.757 10.5205 91.0579 10.5205C91.2584 10.62 92.2613 11.4159 92.5621 11.6149C92.0607 11.6149 90.8573 11.7144 90.6567 11.7144C90.055 11.8139 90.3559 11.3165 89.9547 11.1175L88.4505 12.9083L87.5479 13.9032C87.5479 13.9032 87.5479 13.9032 87.5479 14.0027C87.7485 14.2017 87.6482 14.1022 87.9491 14.0027C88.2499 13.9032 92.2613 17.1864 92.3616 17.3854C92.5621 17.6838 92.2613 17.9823 92.6624 18.1813L93.8658 16.7884C93.9661 16.6889 93.9661 16.6889 93.8658 16.6889C93.565 16.4899 93.565 16.7884 93.1638 16.7884C92.863 16.6889 90.2556 14.5996 89.353 13.8037L94.6681 13.6047C94.8687 13.6047 95.3701 14.2017 95.3701 14.4007C95.2698 14.5996 95.0692 14.7986 95.3701 14.8981C95.6709 14.5001 95.9718 14.2017 96.2726 13.8037L96.3729 13.6047C96.4732 13.6047 96.4732 13.5052 96.4732 13.4057L96.5735 13.3063C96.8743 13.0078 97.7769 12.0129 97.6766 11.9134C97.3758 11.6149 97.2755 12.2119 96.8743 11.9134C96.6738 11.7144 96.0721 10.7195 95.9718 10.5205C95.7712 10.2221 96.3729 9.9236 96.5735 9.82411C97.0749 9.52564 98.6794 9.02819 98.88 10.0231C98.88 10.2221 98.6794 10.421 98.7797 10.5205C98.7797 10.5205 98.88 10.7195 98.9803 10.62L101.086 8.03329C100.986 7.93379 100.986 7.93379 100.886 7.8343C100.384 8.33175 95.3701 6.34195 95.0692 6.04348C94.9689 5.8445 94.9689 5.24756 94.7684 5.24756ZM94.5678 7.8343C95.3701 8.13277 96.0721 8.43124 96.8743 8.82921C96.6738 8.9287 96.4732 9.02819 96.2726 9.12768C96.0721 9.22717 95.8715 9.42615 95.6709 9.62513L94.5678 7.8343ZM87.9491 15.495C86.8459 15.3956 85.7428 15.893 84.9406 16.7884C83.7371 18.2808 83.8374 20.4695 85.3417 21.6634C86.8459 22.8573 89.0522 22.5588 90.2556 21.166C91.459 19.6736 91.3587 17.4848 89.8545 16.291C89.353 15.893 88.6511 15.5945 87.9491 15.495ZM86.5451 17.0869C87.1468 17.0869 87.8488 17.4848 88.2499 17.7833C89.0522 18.2808 90.4562 19.4746 89.7542 20.4695C89.7542 20.3701 89.8545 20.3701 89.6539 20.569C88.8516 21.365 87.4477 20.6685 86.7457 20.0716C86.0437 19.5741 84.74 18.3803 85.5423 17.3854C85.8431 17.1864 86.144 17.0869 86.5451 17.0869ZM83.4363 21.365C82.2329 21.2655 81.0295 21.8624 80.1269 22.9568C79.5252 23.7527 78.8232 24.4491 78.2215 25.2451C78.4221 25.5435 78.723 25.1456 79.0238 25.3446C79.3247 25.5435 83.1355 28.6277 83.1355 28.8267C83.2357 29.1252 82.9349 29.2247 83.2357 29.4237C83.336 29.5231 86.144 26.041 86.4448 25.444C86.8459 24.3497 86.5451 23.0563 85.6425 22.2604C85.7428 22.3599 85.8431 22.3599 85.6425 22.2604C84.8403 21.6634 84.1383 21.365 83.4363 21.365ZM82.3332 22.9568C82.4335 22.9568 82.5337 22.9568 82.634 22.9568C84.038 23.3548 86.0437 25.0461 84.74 26.5384C84.5394 26.7374 84.74 26.5384 84.3389 26.9364C84.1383 27.1354 80.1269 23.9517 80.3275 23.7527C80.7286 23.2553 81.6312 22.8573 82.3332 22.9568Z" fill="white"/>
</svg>
